<svg width="136" height="136" viewBox="0 0 136 136" fill="none" xmlns="http://www.w3.org/2000/svg">
<path d="M67.9688 0C30.4922 0 0 30.4922 0 67.9688C0 105.445 30.4922 135.938 67.9688 135.938C105.445 135.938 135.938 105.445 135.938 67.9688C135.938 30.4922 105.445 0 67.9688 0ZM67.9688 131.25C33.075 131.25 4.6875 102.862 4.6875 67.9688C4.6875 33.075 33.075 4.6875 67.9688 4.6875C102.862 4.6875 131.25 33.075 131.25 67.9688C131.25 102.862 102.862 131.25 67.9688 131.25Z" fill="#4BBA64"/>
<path d="M67.9693 112.5C66.6732 112.5 65.6256 113.548 65.6256 114.844V119.531C65.6256 120.827 66.6732 121.875 67.9693 121.875C69.2654 121.875 70.3131 120.827 70.3131 119.531V114.844C70.3131 113.548 69.2654 112.5 67.9693 112.5ZM82.0623 112.68C81.7272 111.429 80.4475 110.691 79.1912 111.023C77.942 111.359 77.199 112.643 77.5342 113.895L78.7482 118.423C79.0271 119.47 79.974 120.159 81.01 120.159C81.2115 120.159 81.4154 120.134 81.6193 120.08C82.8686 119.745 83.6115 118.46 83.2764 117.209L82.0623 112.68ZM46.2897 106.69C45.1693 106.043 43.735 106.425 43.0881 107.548L40.7443 111.605C40.0975 112.727 40.4818 114.159 41.6022 114.806C41.9701 115.02 42.3732 115.12 42.7717 115.12C43.5826 115.12 44.3701 114.701 44.8037 113.948L47.1475 109.891C47.7967 108.771 47.4123 107.339 46.2897 106.69ZM92.8506 107.55C92.2014 106.427 90.7623 106.043 89.649 106.692C88.5264 107.339 88.142 108.773 88.7912 109.894L91.135 113.951C91.5709 114.703 92.3561 115.123 93.167 115.123C93.5654 115.123 93.9686 115.022 94.3365 114.809C95.4592 114.162 95.8436 112.727 95.1943 111.607L92.8506 107.55ZM56.7475 111.023C55.5029 110.691 54.2115 111.429 53.8764 112.68L52.6623 117.209C52.3272 118.458 53.0701 119.745 54.3193 120.08C54.5232 120.134 54.7272 120.159 54.9287 120.159C55.9623 120.159 56.9115 119.47 57.1904 118.423L58.4045 113.895C58.7397 112.645 57.9967 111.359 56.7475 111.023ZM94.4373 47.5617L60.9381 81.0609L43.8451 63.968C42.9287 63.0516 41.4475 63.0516 40.5311 63.968C39.6146 64.8844 39.6146 66.3656 40.5311 67.282L59.2811 86.032C59.7381 86.4891 60.3381 86.7188 60.9381 86.7188C61.5381 86.7188 62.1381 86.4891 62.5951 86.032L97.7514 50.8758C98.6678 49.9594 98.6678 48.4781 97.7514 47.5617C96.835 46.6453 95.3537 46.6453 94.4373 47.5617ZM85.1982 21.8484C86.8623 22.4719 88.517 23.1938 90.1201 24.0023C90.46 24.1734 90.8186 24.2531 91.1725 24.2531C92.0279 24.2531 92.8553 23.782 93.2678 22.9641C93.8514 21.8109 93.3873 20.4 92.2318 19.8164C90.4787 18.9305 88.6646 18.1359 86.8389 17.4563C85.6295 17.0086 84.2748 17.618 83.8248 18.832C83.3678 20.0484 83.9842 21.3984 85.1982 21.8484Z" fill="#4BBA64"/>
<path d="M33.1639 33.1641C44.2943 22.0359 60.2342 16.875 75.792 19.3711C77.067 19.5797 78.2717 18.7078 78.4779 17.4281C78.6842 16.1508 77.8123 14.9461 76.535 14.7422C59.4935 12.0164 42.042 17.6578 29.8521 29.8476C8.83574 50.8664 8.83574 85.0664 29.8521 106.083C30.3092 106.54 30.9092 106.77 31.5092 106.77C32.1092 106.77 32.7092 106.54 33.1662 106.083C34.0826 105.166 34.0826 103.685 33.1662 102.769C13.9756 83.5805 13.9756 52.357 33.1639 33.1641ZM106.087 29.85C104.545 28.3078 102.895 26.8453 101.177 25.5023C100.158 24.7031 98.6881 24.8836 97.8889 25.9031C97.0896 26.9226 97.2678 28.3922 98.2896 29.1914C99.8553 30.4172 101.365 31.7555 102.773 33.1641C121.964 52.3547 121.964 83.5805 102.773 102.771C101.857 103.688 101.857 105.169 102.773 106.085C103.23 106.542 103.83 106.772 104.43 106.772C105.03 106.772 105.63 106.542 106.087 106.085C127.101 85.0687 127.101 50.8687 106.087 29.85Z" fill="#4BBA64"/>
</svg>
