<svg width="16" height="10" viewBox="0 0 16 10" fill="none" xmlns="http://www.w3.org/2000/svg">
<path d="M1 5C1 5 2.742 1 7.875 1C13.008 1 14.75 5 14.75 5C14.75 5 13.008 9 7.875 9C2.742 9 1 5 1 5Z" stroke="#5C5962" stroke-miterlimit="10"/>
<path d="M7.875 1C6.81413 1 5.79672 1.42143 5.04657 2.17157C4.29643 2.92172 3.875 3.93913 3.875 5C3.875 6.06087 4.29643 7.07828 5.04657 7.82843C5.79672 8.57857 6.81413 9 7.875 9C8.93587 9 9.95328 8.57857 10.7034 7.82843C11.4536 7.07828 11.875 6.06087 11.875 5C11.875 3.93913 11.4536 2.92172 10.7034 2.17157C9.95328 1.42143 8.93587 1 7.875 1V1Z" stroke="#5C5962" stroke-miterlimit="10"/>
<path d="M7.875 3.5C7.47718 3.5 7.09564 3.65804 6.81434 3.93934C6.53304 4.22064 6.375 4.60218 6.375 5C6.375 5.39782 6.53304 5.77936 6.81434 6.06066C7.09564 6.34196 7.47718 6.5 7.875 6.5C8.27282 6.5 8.65436 6.34196 8.93566 6.06066C9.21696 5.77936 9.375 5.39782 9.375 5C9.375 4.60218 9.21696 4.22064 8.93566 3.93934C8.65436 3.65804 8.27282 3.5 7.875 3.5Z" fill="#5C5962"/>
</svg>
